<svg xmlns="http://www.w3.org/2000/svg" width="42.682" height="45" viewBox="0 0 42.682 45">
  <path id="Tracé_14" data-name="Tracé 14" d="M200.394,208.545a7.573,7.573,0,0,1,.654-1.643,22.976,22.976,0,0,1,5.93-5.888c1.577-1.123,3.128-.7,4.186.982,1.7,2.694,3.344,5.427,5.091,8.086a3.6,3.6,0,0,1,.211,3.864c-.621,1.249-1.266,2.486-1.959,3.691a.907.907,0,0,0,.072,1.143,52.7,52.7,0,0,0,5.821,6.766c1.746,1.744,3.605,3.361,5.406,5.044a.633.633,0,0,0,.9.04c1.042-.651,2.1-1.285,3.166-1.882a7.744,7.744,0,0,1,1.533-.638,2.346,2.346,0,0,1,2.1.36c2.823,1.974,5.653,3.938,8.467,5.927a2.787,2.787,0,0,1,.943,3.254,4.28,4.28,0,0,1-.538,1.158,34.728,34.728,0,0,1-4.49,5.288,4.383,4.383,0,0,1-4.193,1.177,23.186,23.186,0,0,1-8.172-3.5,61.309,61.309,0,0,1-10.444-8.771,73.835,73.835,0,0,1-10.61-13.111,26.511,26.511,0,0,1-3.721-8.87C200.6,210.291,200.531,209.541,200.394,208.545Zm1.99.289c.069.581.1.995.169,1.4a21.92,21.92,0,0,0,2.656,7.035,59.506,59.506,0,0,0,8.327,11.218,67.7,67.7,0,0,0,12.886,11.474,21.6,21.6,0,0,0,7.4,3.276,2.9,2.9,0,0,0,2.975-.863c.645-.7,1.336-1.361,1.952-2.09.7-.828,1.362-1.693,2-2.578a1.191,1.191,0,0,0-.331-1.959c-2.42-1.7-4.867-3.351-7.248-5.107a1.958,1.958,0,0,0-2.46-.059c-1.373.836-2.764,1.64-4.138,2.476a.592.592,0,0,1-.773-.012c-.413-.326-.863-.6-1.272-.934a67.889,67.889,0,0,1-9.254-9.284c-1.059-1.268-1.991-2.652-2.987-3.978a.9.9,0,0,1-.046-1.112c.782-1.39,1.519-2.809,2.265-4.222a2.484,2.484,0,0,0,.358-.871,2.188,2.188,0,0,0-.132-1.22c-1.727-2.831-3.507-5.627-5.256-8.443a.784.784,0,0,0-.9-.424,2.176,2.176,0,0,0-.911.426c-1.23,1.085-2.456,2.179-3.631,3.329a11.289,11.289,0,0,0-1.348,1.743A2.946,2.946,0,0,0,202.384,208.834Z" transform="translate(-200.394 -200.389)" fill="#fff"/>
</svg>
